<?xml version="1.0" encoding="UTF-8" standalone="no"?>
<svg
   id="svg5800"
   version="1.1"
   viewBox="0 0 39.6875 39.6875"
   height="150"
   width="150"
   sodipodi:docname="icon-oauth2.svg"
   inkscape:version="1.2.1 (9c6d41e, 2022-07-14)"
   inkscape:export-filename="../94e4957b/kani-yellow-sign.png"
   inkscape:export-xdpi="86.699997"
   inkscape:export-ydpi="86.699997"
   xmlns:inkscape="http://www.inkscape.org/namespaces/inkscape"
   xmlns:sodipodi="http://sodipodi.sourceforge.net/DTD/sodipodi-0.dtd"
   xmlns="http://www.w3.org/2000/svg"
   xmlns:svg="http://www.w3.org/2000/svg"
   xmlns:rdf="http://www.w3.org/1999/02/22-rdf-syntax-ns#"
   xmlns:cc="http://creativecommons.org/ns#"
   xmlns:dc="http://purl.org/dc/elements/1.1/">
  <sodipodi:namedview
     pagecolor="#ffffff"
     bordercolor="#666666"
     borderopacity="1"
     objecttolerance="10"
     gridtolerance="10"
     guidetolerance="10"
     inkscape:pageopacity="0"
     inkscape:pageshadow="2"
     inkscape:window-width="1391"
     inkscape:window-height="819"
     id="namedview108"
     showgrid="false"
     inkscape:zoom="2.7844014"
     inkscape:cx="65.364139"
     inkscape:cy="61.593131"
     inkscape:window-x="49"
     inkscape:window-y="25"
     inkscape:window-maximized="0"
     inkscape:current-layer="layer2"
     inkscape:showpageshadow="0"
     inkscape:pagecheckerboard="1"
     inkscape:deskcolor="#d1d1d1"
     inkscape:document-units="mm"
     showguides="true">
    <sodipodi:guide
       position="0,-35.312501"
       orientation="0,1"
       id="guide932"
       inkscape:locked="false"
       inkscape:label="MiddleHorizontal"
       inkscape:color="rgb(222,221,218)" />
    <sodipodi:guide
       position="75,39.687501"
       orientation="-1,0"
       id="guide934"
       inkscape:locked="false"
       inkscape:label="MiddleVertical"
       inkscape:color="rgb(222,221,218)" />
    <sodipodi:guide
       position="4.7580686,-10.089218"
       orientation="0,-1"
       id="guide1652"
       inkscape:locked="false" />
  </sodipodi:namedview>
  <defs
     id="defs5794">
    <radialGradient
       id="Gradient_4"
       gradientUnits="userSpaceOnUse"
       cx="420.20801"
       cy="346.897"
       r="21.1">
      <stop
         offset="0"
         stop-color="#B1DEF4"
         id="stop8111" />
      <stop
         offset="1"
         stop-color="#10A7CE"
         id="stop8113" />
    </radialGradient>
    <radialGradient
       id="Gradient_5"
       gradientUnits="userSpaceOnUse"
       cx="385.79401"
       cy="98.971001"
       r="165.23399">
      <stop
         offset="0"
         stop-color="#B1DEF4"
         id="stop8116" />
      <stop
         offset="1"
         stop-color="#10A7CE"
         id="stop8118" />
    </radialGradient>
    <radialGradient
       id="Gradient_6"
       gradientUnits="userSpaceOnUse"
       cx="154.649"
       cy="435.46399"
       r="21.1">
      <stop
         offset="0"
         stop-color="#F7B6D3"
         id="stop8121" />
      <stop
         offset="1"
         stop-color="#FF5D73"
         id="stop8123" />
    </radialGradient>
    <radialGradient
       id="Gradient_7"
       gradientUnits="userSpaceOnUse"
       cx="120.117"
       cy="187.53799"
       r="165.23399">
      <stop
         offset="0"
         stop-color="#F7B6D3"
         id="stop8126" />
      <stop
         offset="1"
         stop-color="#FF5D73"
         id="stop8128" />
    </radialGradient>
    <radialGradient
       id="Gradient_8"
       gradientUnits="userSpaceOnUse"
       cx="660.41699"
       cy="435.46399"
       r="21.1">
      <stop
         offset="0"
         stop-color="#F7AEB4"
         id="stop8131" />
      <stop
         offset="1"
         stop-color="#F60012"
         id="stop8133" />
    </radialGradient>
    <radialGradient
       id="Gradient_9"
       gradientUnits="userSpaceOnUse"
       cx="625.88501"
       cy="187.53799"
       r="165.23399">
      <stop
         offset="0"
         stop-color="#F7AEB4"
         id="stop8136" />
      <stop
         offset="1"
         stop-color="#F60012"
         id="stop8138" />
    </radialGradient>
    <radialGradient
       id="Gradient_10"
       gradientUnits="userSpaceOnUse"
       cx="283.38901"
       cy="577.77899"
       r="21.1">
      <stop
         offset="0"
         stop-color="#FBDEAD"
         id="stop8141" />
      <stop
         offset="1"
         stop-color="#FF9800"
         id="stop8143" />
    </radialGradient>
    <radialGradient
       id="Gradient_11"
       gradientUnits="userSpaceOnUse"
       cx="213.711"
       cy="337.353"
       r="165.23399">
      <stop
         offset="0"
         stop-color="#FBDEAD"
         id="stop8146" />
      <stop
         offset="1"
         stop-color="#FF9800"
         id="stop8148" />
    </radialGradient>
    <linearGradient
       id="Gradient_12"
       gradientUnits="userSpaceOnUse"
       x1="395.94601"
       y1="909.60699"
       x2="398.86099"
       y2="889.30902">
      <stop
         offset="0"
         stop-color="#FF1F19"
         id="stop8151" />
      <stop
         offset="1"
         stop-color="#B7282C"
         id="stop8153" />
    </linearGradient>
    <linearGradient
       id="Gradient_13"
       gradientUnits="userSpaceOnUse"
       x1="364.41199"
       y1="920.81097"
       x2="381.88199"
       y2="898.88202">
      <stop
         offset="0"
         stop-color="#FF1F19"
         id="stop8156" />
      <stop
         offset="1"
         stop-color="#B7282C"
         id="stop8158" />
    </linearGradient>
    <linearGradient
       id="Gradient_14"
       gradientUnits="userSpaceOnUse"
       x1="400.103"
       y1="884.01398"
       x2="414.327"
       y2="886.43201">
      <stop
         offset="0"
         stop-color="#FF1F19"
         id="stop8161" />
      <stop
         offset="1"
         stop-color="#B7282C"
         id="stop8163" />
    </linearGradient>
    <linearGradient
       id="Gradient_15"
       gradientUnits="userSpaceOnUse"
       x1="401.52899"
       y1="-883.02899"
       x2="418.35501"
       y2="-884.72101"
       gradientTransform="scale(1,-1)">
      <stop
         offset="0"
         stop-color="#AF2525"
         id="stop8166" />
      <stop
         offset="1"
         stop-color="#90282C"
         id="stop8168" />
    </linearGradient>
    <clipPath
       id="Clip_1">
      <path
         d="m 408.16,886.73 c 2.63,0.16 5.1,-0.27 7.57,-1.06 3.52,-1.3 2.99,-1.72 1.65,-1.82 v 0 l 0.21,-2.29 c -2.74,0.34 -5.51,-0.08 -8.21,-0.56 v 0 c 1.75,0.6 3.93,1.12 4.79,2.94 -0.02,0 -0.03,0 -0.03,0 0,0 -3.11,3.22 -12.86,1.6 2.22,0.78 4.56,0.96 6.88,1.19 z"
         id="path8171" />
    </clipPath>
    <linearGradient
       id="Gradient_16"
       gradientUnits="userSpaceOnUse"
       x1="406.53"
       y1="880.51599"
       x2="409.40302"
       y2="880.80499">
      <stop
         offset="0"
         stop-color="#AF2525"
         id="stop8174" />
      <stop
         offset="1"
         stop-color="#90282C"
         id="stop8176" />
    </linearGradient>
    <linearGradient
       id="Gradient_17"
       gradientUnits="userSpaceOnUse"
       x1="452.20001"
       y1="905.45599"
       x2="444.604"
       y2="892.92102">
      <stop
         offset="0"
         stop-color="#FF1F19"
         id="stop8179" />
      <stop
         offset="1"
         stop-color="#B7282C"
         id="stop8181" />
    </linearGradient>
    <linearGradient
       id="Gradient_18"
       gradientUnits="userSpaceOnUse"
       x1="462.254"
       y1="893.729"
       x2="456.45901"
       y2="887.92401">
      <stop
         offset="0"
         stop-color="#FF1F19"
         id="stop8184" />
      <stop
         offset="1"
         stop-color="#B7282C"
         id="stop8186" />
    </linearGradient>
    <linearGradient
       id="Gradient_19"
       gradientUnits="userSpaceOnUse"
       x1="446.13501"
       y1="882.91602"
       x2="429.77499"
       y2="883.61603">
      <stop
         offset="0"
         stop-color="#FF1F19"
         id="stop8189" />
      <stop
         offset="1"
         stop-color="#B7282C"
         id="stop8191" />
    </linearGradient>
    <linearGradient
       id="Gradient_20"
       gradientUnits="userSpaceOnUse"
       x1="443.24799"
       y1="-882.92798"
       x2="426.452"
       y2="-884.64899"
       gradientTransform="scale(1,-1)">
      <stop
         offset="0"
         stop-color="#AF2525"
         id="stop8194" />
      <stop
         offset="1"
         stop-color="#90282C"
         id="stop8196" />
    </linearGradient>
    <clipPath
       id="Clip_2">
      <path
         d="m 436.63,886.65 c 2.32,-0.16 4.66,-0.45 6.88,-1.19 -3.99,0.52 -9.46,1.2 -12.88,-1.55 0,0 -0.01,0.01 -0.03,0 0.38,-1.36 2.78,-2.34 4.78,-2.94 -5.2,1.07 -8.18,0.51 -8.18,0.51 l 0.23,2.22 0.01,0.01 c -1.35,0.13 -1.9,0.59 1.62,1.88 2.44,0.98 4.99,0.96 7.57,1.06 z"
         id="path8199" />
    </clipPath>
    <linearGradient
       id="Gradient_21"
       gradientUnits="userSpaceOnUse"
       x1="438.23401"
       y1="880.48499"
       x2="435.36099"
       y2="880.78003">
      <stop
         offset="0"
         stop-color="#AF2525"
         id="stop8202" />
      <stop
         offset="1"
         stop-color="#90282C"
         id="stop8204" />
    </linearGradient>
    <radialGradient
       id="Gradient_22"
       gradientUnits="userSpaceOnUse"
       cx="421.086"
       cy="879.30603"
       r="5.8280001">
      <stop
         offset="0"
         stop-color="#E61F19"
         id="stop8207" />
      <stop
         offset="0.988"
         stop-color="#9E282C"
         id="stop8209" />
      <stop
         offset="1"
         stop-color="#9E282C"
         id="stop8211" />
    </radialGradient>
    <radialGradient
       id="Gradient_23"
       gradientUnits="userSpaceOnUse"
       cx="146.832"
       cy="-316.11899"
       r="53.613998"
       gradientTransform="scale(1,-1)">
      <stop
         offset="0"
         stop-color="#FFFFFF"
         id="stop8214" />
      <stop
         offset="1"
         stop-color="#FFFFFF"
         stop-opacity="0.001"
         id="stop8216" />
    </radialGradient>
    <radialGradient
       id="Gradient_24"
       gradientUnits="userSpaceOnUse"
       cx="55.174999"
       cy="-176.464"
       r="53.613998"
       gradientTransform="scale(1,-1)">
      <stop
         offset="0"
         stop-color="#FFFFFF"
         id="stop8219" />
      <stop
         offset="1"
         stop-color="#FFFFFF"
         stop-opacity="0.001"
         id="stop8221" />
    </radialGradient>
    <radialGradient
       id="Gradient_25"
       gradientUnits="userSpaceOnUse"
       cx="565.53101"
       cy="-165.11301"
       r="53.613998"
       gradientTransform="scale(1,-1)">
      <stop
         offset="0"
         stop-color="#FFFFFF"
         id="stop8224" />
      <stop
         offset="1"
         stop-color="#FFFFFF"
         stop-opacity="0.001"
         id="stop8226" />
    </radialGradient>
    <radialGradient
       id="Gradient_26"
       gradientUnits="userSpaceOnUse"
       cx="333.47"
       cy="-63.138"
       r="53.613998"
       gradientTransform="scale(1,-1)">
      <stop
         offset="0"
         stop-color="#FFFFFF"
         id="stop8229" />
      <stop
         offset="1"
         stop-color="#FFFFFF"
         stop-opacity="0.001"
         id="stop8231" />
    </radialGradient>
    <radialGradient
       id="Gradient_27"
       gradientUnits="userSpaceOnUse"
       cx="536.58099"
       cy="578.03198"
       r="21.1">
      <stop
         offset="0"
         stop-color="#C0E7C7"
         id="stop8234" />
      <stop
         offset="1"
         stop-color="#229614"
         id="stop8236" />
    </radialGradient>
    <radialGradient
       id="Gradient_28"
       gradientUnits="userSpaceOnUse"
       cx="553.57397"
       cy="328.29001"
       r="165.23399">
      <stop
         offset="0"
         stop-color="#C0E7C7"
         id="stop8239" />
      <stop
         offset="1"
         stop-color="#229614"
         id="stop8241" />
    </radialGradient>
    <radialGradient
       id="Gradient_29"
       gradientUnits="userSpaceOnUse"
       cx="488.81201"
       cy="-304.62601"
       r="53.613998"
       gradientTransform="scale(1,-1)">
      <stop
         offset="0"
         stop-color="#FFFFFF"
         id="stop8244" />
      <stop
         offset="1"
         stop-color="#FFFFFF"
         stop-opacity="0.001"
         id="stop8246" />
    </radialGradient>
    <symbol
       id="balloons"
       viewBox="0 0 825 962">
      <g
         style="fill:none;stroke:#eccb78;stroke-width:4.069;stroke-linecap:round;stroke-linejoin:round"
         id="g8261">
        <path
           d="M 291.13,584.61 422.41,889.24 540.38,589.26"
           id="path8249" />
        <path
           d="m 426.95,357.75 -4.54,531.49"
           id="path8251" />
        <path
           d="M 158.17,411.35 421.71,889.24 667.1,402.98"
           id="path8253" />
        <path
           d="m 415.21,958.51 c 8.81,-23.5 6.08,-71.63 6.08,-71.63 -3.66,47 -29.02,70.1 -29.02,70.1"
           id="path8255" />
        <path
           d="m 456.29,956.29 c 0,0 -26.52,-21.77 -32.58,-68.52 0,0 -0.26,48.21 9.75,71.23"
           id="path8257" />
        <path
           d="m 404.06,957.77 c 0,0 13.62,-20.66 18.45,-69.2"
           id="path8259" />
      </g>
      <path
         style="fill:url(#Gradient_4)"
         d="m 423.73,337.05 -21.46,35.03 c -1.86,3.04 0.32,6.93 3.89,6.93 v 0 h 41.71 c 3.51,0 5.7,-3.8 3.94,-6.83 v 0 l -20.25,-35.03 c -0.88,-1.51 -2.41,-2.28 -3.95,-2.28 v 0 c -1.5,0 -2.99,0.72 -3.88,2.18 z"
         id="path8263" />
      <path
         style="fill:url(#Gradient_5)"
         d="m 273.05,178.98 c 0,97.08 68.93,175.78 153.96,175.79 v 0 c 85.03,0 153.96,-78.7 153.97,-175.79 v 0 C 580.98,81.9 512.05,3.2 427.01,3.2 v 0 c -85.03,0 -153.96,78.7 -153.96,175.78 z"
         id="path8265" />
      <path
         style="fill:url(#Gradient_6)"
         d="m 158.17,425.62 -21.46,35.02 c -1.86,3.04 0.32,6.94 3.89,6.94 v 0 h 41.71 c 3.51,0 5.7,-3.8 3.94,-6.84 v 0 L 166,425.71 c -0.88,-1.51 -2.41,-2.27 -3.95,-2.27 v 0 c -1.5,0 -2.99,0.72 -3.88,2.18 z"
         id="path8267" />
      <path
         style="opacity:0.95;fill:url(#Gradient_7)"
         d="m 7.37,267.55 c 0,97.08 68.93,175.78 153.97,175.78 v 0 c 85.03,0 153.96,-78.7 153.96,-175.78 v 0 C 315.3,170.47 246.37,91.77 161.34,91.77 v 0 C 76.31,91.77 7.38,170.47 7.37,267.55 Z"
         id="path8269" />
      <path
         style="fill:url(#Gradient_8)"
         d="m 663.94,425.62 -21.46,35.02 c -1.86,3.04 0.33,6.94 3.89,6.94 v 0 h 41.71 c 3.51,0 5.7,-3.8 3.94,-6.84 v 0 l -20.25,-35.03 c -0.88,-1.51 -2.41,-2.27 -3.95,-2.27 v 0 c -1.5,0 -2.99,0.72 -3.88,2.18 z"
         id="path8271" />
      <path
         style="opacity:0.95;fill:url(#Gradient_9)"
         d="m 513.14,267.55 c 0,97.08 68.93,175.78 153.96,175.78 v 0 c 85.03,0 153.96,-78.7 153.97,-175.78 v 0 C 821.07,170.47 752.14,91.77 667.1,91.77 v 0 c -85.03,0 -153.96,78.7 -153.96,175.78 z"
         id="path8273" />
      <path
         style="fill:url(#Gradient_10)"
         d="m 285.46,567.53 -16.21,37.74 c -1.41,3.27 1.31,6.82 4.83,6.3 v 0 l 41.28,-5.97 c 3.47,-0.5 5.1,-4.58 2.93,-7.33 v 0 l -25.06,-31.76 c -0.93,-1.17 -2.25,-1.74 -3.57,-1.74 v 0 c -1.72,0 -3.42,0.96 -4.2,2.76 z"
         id="path8275" />
      <path
         style="opacity:0.95;fill:url(#Gradient_11)"
         d="m 240.79,236.67 c -84.15,12.18 -141.11,99.94 -127.2,196.02 v 0 c 13.9,96.08 93.39,164.1 177.54,151.92 v 0 c 84.15,-12.18 141.1,-99.94 127.21,-196.02 v 0 C 405.52,300 336.93,235.26 260.34,235.26 v 0 c -6.47,0 -12.99,0.46 -19.55,1.41 z"
         id="path8277" />
      <path
         style="fill:url(#Gradient_27)"
         d="M 542.05,569.11 513.87,599 c -2.44,2.59 -1.1,6.85 2.38,7.59 v 0 l 40.83,8.54 c 3.43,0.72 6.36,-2.55 5.25,-5.88 v 0 l -12.64,-38.43 c -0.66,-2.01 -2.48,-3.13 -4.35,-3.14 v 0 c -1.18,0 -2.38,0.46 -3.29,1.43 z"
         id="path8279" />
      <path
         style="opacity:0.95;fill:url(#Gradient_28)"
         d="m 426.83,383.51 c -19.89,95.02 31.46,186.18 114.68,203.6 v 0 c 83.23,17.42 166.82,-45.49 186.71,-140.52 v 0 C 748.11,351.57 696.76,260.41 613.54,242.99 v 0 c -9.34,-1.96 -18.68,-2.9 -27.94,-2.89 v 0 c -73.25,0 -141.11,59.05 -158.77,143.41 z"
         id="path8281" />
      <path
         style="opacity:0.7;fill:url(#Gradient_23)"
         d="m 126.74,409.71 c 0,0 29.93,-94.86 60.85,-110.42 19.92,-10.03 -4.23,-30.39 -27.01,-14.05 -6.7,5.14 -12.35,11.69 -17.06,18.66 -14.36,21.28 -19.56,46.01 -20.09,71.27 v 0.02 c -0.07,11.6 1.32,23.12 3.31,34.52 z"
         id="path8283" />
      <path
         style="opacity:0.7;fill:url(#Gradient_24)"
         d="m 30.74,269.01 c 0,0 34.33,-93.36 65.93,-107.45 20.37,-9.09 -2.81,-30.55 -26.32,-15.3 0,0 -51.89,32.72 -39.61,122.75 z"
         id="path8285" />
      <path
         style="opacity:0.7;fill:url(#Gradient_25)"
         d="m 537.49,256.64 c 0,0 37.96,-91.94 70.09,-104.8 20.71,-8.29 -1.61,-30.64 -25.71,-16.31 0,0 -53.13,30.67 -44.38,121.11 z"
         id="path8287" />
      <path
         style="opacity:0.7;fill:url(#Gradient_26)"
         d="m 305.43,154.66 c 0,0 37.96,-91.94 70.09,-104.79 20.71,-8.28 -1.61,-30.64 -25.71,-16.32 0,0 -53.13,30.67 -44.38,121.11 z"
         id="path8289" />
      <path
         style="opacity:0.7;fill:url(#Gradient_29)"
         d="m 454.08,393.82 c 0,0 44.65,-88.88 77.64,-99.32 21.27,-6.73 0.66,-30.67 -24.42,-18.17 0,0 -55.25,26.66 -53.22,117.49 z"
         id="path8291" />
      <path
         style="fill:url(#Gradient_12)"
         d="m 375.83,907.75 9.08,1.65 c -1.21,2.8 0.79,11.89 0.79,11.89 v 0 c 8.26,-15.42 34.5,-34.41 33.81,-33.91 v 0 l 0.71,-5.79 c -24.03,1.57 -44.39,26.16 -44.39,26.16 z"
         id="path8293" />
      <path
         style="fill:url(#Gradient_13)"
         d="m 380.2,872.6 c 13.6,7.74 40.82,5.99 40.82,5.99 v 0 c -22.8,-5.81 -32.93,-7.21 -37.4,-7.21 v 0 c -4.17,0 -3.42,1.22 -3.42,1.22 z"
         id="path8295" />
      <path
         style="fill:url(#Gradient_14)"
         d="m 380.45,890.39 c 7.74,5.62 42.01,-3.08 42.01,-3.09 v 0 l -0.09,-10.01 c -42.04,-1.73 -42.31,-5.05 -42.31,-5.05 v 0 z"
         id="path8297" />
      <g
         clip-path="url(#Clip_1)"
         opacity="0.24"
         id="g8301">
        <path
           style="fill:url(#Gradient_15)"
           d="m 408.16,886.73 c 2.63,0.16 5.1,-0.27 7.57,-1.06 3.52,-1.3 2.99,-1.72 1.65,-1.82 v 0 l 0.21,-2.29 c 0,0 -3,0.5 -8.21,-0.56 2.01,0.59 4.41,1.58 4.79,2.94 -0.02,0 -0.03,0 -0.03,0 0,0 -3.11,3.22 -12.86,1.6 2.22,0.78 4.56,0.96 6.88,1.19 z"
           id="path8299" />
      </g>
      <path
         style="fill:url(#Gradient_16)"
         d="m 409.38,881 c -1.53,-0.45 -2.83,-0.68 -2.83,-0.68 v 0 c 1.01,0.28 1.95,0.5 2.83,0.68 z"
         id="path8303" />
      <path
         style="fill:url(#Gradient_17)"
         d="m 425.53,887.37 c 0,0 25.53,18.33 33.88,33.85 v 0 c 0,0 1.98,-9.1 0.76,-11.89 v 0 l 9.08,-1.67 c 0,0 -20.4,-24.55 -44.44,-26.08 v 0 z"
         id="path8305" />
      <path
         style="fill:url(#Gradient_18)"
         d="m 423.74,878.59 c 0,0 40.72,9.96 40.43,-5.69 v 0 c -0.01,-0.45 0.33,-1.72 -3.83,-1.73 v 0 c -4.58,0 -14.62,1.54 -36.6,7.42 z"
         id="path8307" />
      <path
         style="fill:url(#Gradient_19)"
         d="m 422.39,877.29 -0.07,10.01 c 0,0 34.28,8.63 42.01,3 v 0 l -0.11,-17.86 c 0,0 -0.29,1.43 -41.83,4.85 z"
         id="path8309" />
      <g
         clip-path="url(#Clip_2)"
         opacity="0.24"
         id="g8313">
        <path
           style="fill:url(#Gradient_20)"
           d="m 436.63,886.65 c 2.32,-0.16 4.66,-0.45 6.88,-1.19 -9.75,1.64 -12.88,-1.55 -12.88,-1.55 0,0 -0.01,0.01 -0.03,0 0.38,-1.36 2.78,-2.34 4.78,-2.94 -5.2,1.07 -8.18,0.51 -8.18,0.51 l 0.23,2.22 0.01,0.01 c -1.35,0.13 -1.9,0.59 1.62,1.88 2.44,0.98 4.99,0.96 7.57,1.06 z"
           id="path8311" />
      </g>
      <path
         style="fill:url(#Gradient_21)"
         d="m 435.38,880.98 c 0.88,-0.18 1.83,-0.4 2.83,-0.69 v 0 c 0,0 -1.3,0.23 -2.83,0.69 z"
         id="path8315" />
      <path
         style="fill:url(#Gradient_22)"
         d="m 417.09,877.31 c 0,0 -1.77,8.19 0.74,11.61 v 0 l 9.25,-0.01 c 0,0 2.64,-7.59 0.88,-11.59 v 0 c 0,0 -4.62,-1 -7.84,-1 v 0 c -1.6,0 -2.86,0.25 -3.03,0.99 z"
         id="path8317" />
    </symbol>
  </defs>
  <metadata
     id="metadata5797">
    <rdf:RDF>
      <cc:Work
         rdf:about="">
        <dc:format>image/svg+xml</dc:format>
        <dc:type
           rdf:resource="http://purl.org/dc/dcmitype/StillImage" />
      </cc:Work>
    </rdf:RDF>
  </metadata>
  <g
     inkscape:groupmode="layer"
     id="layer2"
     inkscape:label="Kani"
     style="display:inline"
     transform="translate(-40.228511,-7.4385631)">
    <path
       id="path5404"
       d="m 47.256748,30.044057 c -1.108637,2.679174 1.907156,5.148881 1.920091,5.188787 -0.550848,-1.615849 -1.133032,-2.920248 -0.0623,-4.049623"
       style="fill:#803300;stroke:#000000;stroke-width:0.32966;stroke-linecap:butt;stroke-linejoin:round;stroke-miterlimit:4;stroke-dasharray:none;stroke-opacity:1"
       inkscape:label="kani-rear-claw-left"
       inkscape:export-filename="../1d28c49c/party-kani.png"
       inkscape:export-xdpi="160.64"
       inkscape:export-ydpi="160.64" />
    <path
       style="fill:#803300;stroke:#000000;stroke-width:0.32966;stroke-linecap:butt;stroke-linejoin:round;stroke-miterlimit:4;stroke-dasharray:none;stroke-opacity:1"
       d="m 72.279451,29.867841 c 1.108639,2.679173 -1.907154,5.148881 -1.920091,5.188782 0.550847,-1.615844 1.133031,-2.920243 0.0623,-4.049619"
       id="path5408"
       inkscape:label="kani-rear-claw-right" />
    <path
       id="path4529"
       d="m 59.687987,15.86156 c -0.431403,-0.0051 -0.84422,0.775615 -1.612258,2.30322 -2.32472,-2.556767 -2.443632,-2.587721 -3.24461,0.873588 -0.03747,0.01568 -0.07486,0.03161 -0.112266,0.0477 -2.928143,-1.755243 -3.079434,-1.768972 -2.857219,1.661998 -0.07111,0.05273 -0.142154,0.10618 -0.212947,0.160477 -3.000566,-1.188615 -3.130304,-1.113719 -2.371021,2.179539 -0.03555,0.03847 -0.0712,0.07676 -0.106646,0.115675 -3.058205,-0.826252 -3.143772,-0.702098 -2.003221,2.524684 -0.04894,0.0702 -0.09751,0.141613 -0.146165,0.212776 -3.446985,-0.368477 -3.517796,-0.301154 -1.765405,2.91037 -0.0085,0.01589 -0.01734,0.03109 -0.02591,0.04702 -1.4122,0.675083 -1.879711,1.497912 -2.548875,2.602365 -0.05195,2.190449 2.292587,4.07824 5.663674,6.223636 -1.158177,-2.146516 -2.969363,-3.234648 -3.31684,-5.897064 0.508886,-0.957788 1.374276,-1.288645 2.117359,-1.71958 8.116214,4.736605 16.686002,4.791513 25.235776,-0.181428 0.745079,0.433512 1.615611,0.763192 2.126555,1.72486 -0.347475,2.662414 -2.158831,3.750377 -3.317007,5.896892 3.371082,-2.145394 5.715783,-4.033017 5.663843,-6.223466 -0.650598,-1.073811 -1.113187,-1.88104 -2.436098,-2.545467 1.652553,-3.038888 1.495242,-3.06749 -1.973239,-2.695722 -0.02938,-0.03798 -0.05866,-0.07643 -0.08808,-0.114138 1.198204,-3.382817 1.123036,-3.471219 -2.107139,-2.594874 0.81753,-3.529305 0.708286,-3.543698 -2.564551,-2.242913 0.246522,-3.72022 0.158214,-3.712493 -2.930134,-1.860122 -0.823543,-3.566516 -0.920717,-3.555903 -3.27698,-0.964219 -0.886279,-1.626423 -1.352579,-2.440599 -1.790618,-2.445808 z"
       style="display:inline;fill:#ff6600;stroke:#000000;stroke-width:0.32966;stroke-linecap:butt;stroke-linejoin:round;stroke-miterlimit:4;stroke-dasharray:none;stroke-opacity:1"
       inkscape:label="kani-body" />
    <g
       id="g5758"
       transform="matrix(0.32966003,0,0,0.32966003,25.875957,-8.7851129)"
       style="display:inline"
       inkscape:label="kani-face">
      <path
         style="display:inline;fill:#d45500;stroke:#000000;stroke-width:1;stroke-linecap:butt;stroke-linejoin:miter;stroke-miterlimit:4;stroke-dasharray:none;stroke-opacity:1"
         d="m 98.808992,121.55238 c -0.682767,-0.0559 4.468828,10.17565 8.051908,0.17277 0.24133,-0.67372 -3.69223,2.90976 -8.051908,-0.17277 z"
         id="path5399"
         inkscape:label="kani-smile" />
      <g
         id="g351"
         inkscape:label="kani-eye-left">
        <path
           style="fill:#000000;stroke:#000000;stroke-width:0.264583px;stroke-linecap:butt;stroke-linejoin:miter;stroke-opacity:1"
           d="m 93.212672,111.5632 c -5.131386,10.99206 5.618332,14.73472 4.412511,4.11951 -0.319289,-3.2881 -2.328089,-7.17448 -4.412511,-4.11951 z"
           id="path5415" />
        <path
           style="fill:#ffffff;stroke:#000000;stroke-width:0.264583px;stroke-linecap:butt;stroke-linejoin:miter;stroke-opacity:1"
           d="m 95.394393,112.41429 c -1.183441,1.51896 -0.08172,3.83605 -0.09872,3.98526 1.674403,1.64132 1.61267,-4.77034 0.09872,-3.98526 z"
           id="path5417" />
      </g>
      <g
         id="g355"
         inkscape:label="kani-eye-right">
        <path
           id="path5433"
           d="m 109.6169,111.5632 c -5.13141,10.99206 5.61836,14.73472 4.41254,4.11951 -0.31929,-3.2881 -2.3281,-7.17448 -4.41254,-4.11951 z"
           style="fill:#000000;stroke:#000000;stroke-width:0.264583px;stroke-linecap:butt;stroke-linejoin:miter;stroke-opacity:1" />
        <path
           id="path5435"
           d="m 111.79864,112.41429 c -1.18345,1.51896 -0.0817,3.83605 -0.0987,3.98526 1.67441,1.64132 1.61267,-4.77034 0.0987,-3.98526 z"
           style="display:inline;fill:#ffffff;stroke:#000000;stroke-width:0.264583px;stroke-linecap:butt;stroke-linejoin:miter;stroke-opacity:1" />
      </g>
    </g>
    <path
       id="path5389"
       d="m 51.475333,28.920487 c -0.168261,0.0013 -0.280434,0.01794 -0.262006,0.02931 0,0 -3.011135,3.934858 0.102216,6.151064 a 3.2132327,2.7286249 37.793943 0 0 0.473761,3.106624 3.2132327,2.7286249 37.793943 0 0 3.48277,1.307827 l -1.174949,-2.836952 3.031834,0.242419 a 3.2132327,2.7286249 37.793943 0 0 -2.31634,-2.937459 3.2132327,2.7286249 37.793943 0 0 -2.310205,0.003 c -0.613929,-0.449677 -1.525896,-1.623909 -0.01345,-4.112595 0.500447,-0.823475 -0.508826,-0.95705 -1.013621,-0.953144 z"
       style="display:inline;fill:#ff6600;fill-opacity:1;stroke:#000000;stroke-width:0.32966;stroke-linejoin:round;stroke-miterlimit:4;stroke-dasharray:none;stroke-opacity:1"
       inkscape:label="kani-claw-left-down" />
    <path
       id="path8665"
       d="m 83.960168,109.11313 c -0.27485,0.43011 -0.4985,0.69147 -0.49798,0.62578 0,0 -14.965898,1.38701 -15.636208,-10.186101 a 9.7471106,8.2770874 84.335985 0 1 -7.216103,-6.22894 9.7471106,8.2770874 84.335985 0 1 2.259156,-11.0566 l 5.392134,7.59511 4.268531,-8.17939 a 9.7471106,8.2770874 84.335985 0 1 3.80891,10.68931 9.7471106,8.2770874 84.335985 0 1 -3.73468,5.92977 c 0.16465,2.302521 1.70979,6.539611 10.54286,6.669381 2.92274,0.043 1.63761,2.85111 0.81319,4.14154 z"
       style="display:none;fill:#ff6600;fill-opacity:1;stroke:#000000;stroke-width:1;stroke-linejoin:round;stroke-miterlimit:4;stroke-dasharray:none;stroke-opacity:1"
       inkscape:label="kani-claw-left-up" />
    <g
       transform="matrix(0.01813601,0,0,0.01813601,68.507611,14.608414)"
       id="g5010"
       style="display:inline">
      <path
         fill="#ffffff"
         d="M 277.7249,0.87048682 C 410.2899,-8.3215132 498.1879,56.550487 548.4459,135.58949 c 25.2,39.63 49.925,99.82 50.039,161.663 0.122,67.194 -21.646,125.383 -50.039,168.078 -29.182,43.883 -66.926,80.128 -114.19,103.927 -79.006,39.783 -189.42,40.871 -261.741,2.566 -80.542003,-42.658 -142.468003,-103.545 -165.5120033,-209.136 -9.222,-42.256 -10.282,-96.855 2.566,-143.7 3.0150003,-10.989 8.4940003,-22.554 12.8310003,-33.359 20.842,-51.924 56.317,-97.076003 100.077003,-128.305003 17.584,-12.548 38.916,-25.028 57.737,-33.359 23.418,-10.365 62.846,-20.6910002 97.511,-23.09400018 z"
         id="path4914" />
      <path
         fill="#000000"
         d="m 529.1839,304.72449 c 0,125.288 -101.566,226.847 -226.852,226.847 -125.286,0 -226.850003,-101.559 -226.850003,-226.847 0,-125.285 101.564003,-226.852003 226.850003,-226.852003 125.285,0 226.852,101.567003 226.852,226.852003 z"
         id="path4916" />
      <path
         fill="#000000"
         d="M 277.7249,0.87048682 C 410.2899,-8.3215132 498.1879,56.550487 548.4459,135.58949 c 25.2,39.63 49.925,99.82 50.039,161.663 0.122,67.194 -21.646,125.383 -50.039,168.078 -29.182,43.883 -66.926,80.128 -114.19,103.927 -79.006,39.783 -189.42,40.871 -261.741,2.566 -80.542003,-42.658 -142.468003,-103.545 -165.5120033,-209.136 -9.222,-42.256 -10.282,-96.855 2.566,-143.7 3.0150003,-10.989 8.4940003,-22.554 12.8310003,-33.359 20.842,-51.924 56.317,-97.076003 100.077003,-128.305003 17.584,-12.548 38.916,-25.028 57.737,-33.359 23.418,-10.365 62.846,-20.6910002 97.511,-23.09400018 z M 232.8179,22.682487 c -49.239,12.766 -85.342,35.637 -116.756,60.303 -45.299003,35.568003 -74.177003,85.203003 -91.096003,144.983003 -18.8230003,66.508 -6.732,146.99 19.246,197.588 26.939,52.472 63.110003,93.203 114.190003,121.889 49.695,27.908 119.591,45.828 192.457,32.076 64.74,-12.218 113.909,-40.421 153.965,-82.115 53.592,-55.785 96.665,-158.534 68.002,-266.872 -7.662,-28.955 -17.679,-59.133 -33.36,-84.681 -8.472,-13.802 -20.904,-27.38 -33.359,-41.057 -47.006,-51.621003 -122.979,-96.1040032 -220.684,-89.813003 -18.594,1.197 -34.935,3.117 -52.605,7.699 z"
         id="path4918" />
      <g
         style="fill:none;stroke:#ffffff;stroke-width:2"
         id="hashpattern">
        <g
           id="g4948">
          <line
             y2="314.65799"
             x2="578.18799"
             y1="576.78998"
             x1="316.04999"
             id="line4920" />
          <line
             y2="292.754"
             x2="556.41498"
             y1="556.03003"
             x1="293.134"
             id="line4922" />
          <line
             y2="270.85101"
             x2="534.64301"
             y1="535.27301"
             x1="270.21701"
             id="line4924" />
          <line
             y2="248.948"
             x2="512.87"
             y1="514.513"
             x1="247.3"
             id="line4926" />
          <line
             y2="227.04401"
             x2="491.09799"
             y1="493.754"
             x1="224.384"
             id="line4928" />
          <line
             y2="205.14101"
             x2="469.32401"
             y1="473"
             x1="201.467"
             id="line4930" />
          <line
             y2="183.23801"
             x2="447.552"
             y1="452.23599"
             x1="178.55"
             id="line4932" />
          <line
             y2="161.334"
             x2="425.77802"
             y1="431.47699"
             x1="155.633"
             id="line4934" />
          <line
             y2="139.431"
             x2="404"
             y1="410.71799"
             x1="132.716"
             id="line4936" />
          <line
             y2="117.528"
             x2="382.233"
             y1="389.95801"
             x1="109.8"
             id="line4938" />
          <line
             y2="95.625"
             x2="360.45999"
             y1="369.20001"
             x1="86.883003"
             id="line4940" />
          <line
             y2="73.721001"
             x2="338.68799"
             y1="348.44101"
             x1="63.966"
             id="line4942" />
          <line
             y2="51.818001"
             x2="316.91501"
             y1="327.681"
             x1="41.049"
             id="line4944" />
          <line
             y2="29.915001"
             x2="295.142"
             y1="306.922"
             x1="18.132"
             id="line4946" />
        </g>
        <g
           id="g4978">
          <line
             y2="576.96002"
             x2="285.41901"
             y1="309.57199"
             x1="18.042999"
             id="line4950" />
          <line
             y2="555.48798"
             x2="307.62201"
             y1="287.57901"
             x1="39.726002"
             id="line4952" />
          <line
             y2="534.01398"
             x2="329.82501"
             y1="265.586"
             x1="61.409"
             id="line4954" />
          <line
             y2="512.54199"
             x2="352.02899"
             y1="243.593"
             x1="83.092003"
             id="line4956" />
          <line
             y2="491.06799"
             x2="374.23099"
             y1="221.60001"
             x1="104.774"
             id="line4958" />
          <line
             y2="469.595"
             x2="396.436"
             y1="199.60699"
             x1="126.457"
             id="line4960" />
          <line
             y2="448.12201"
             x2="418.63901"
             y1="177.614"
             x1="148.14"
             id="line4962" />
          <line
             y2="426.64801"
             x2="440.84201"
             y1="155.621"
             x1="169.82201"
             id="line4964" />
          <line
             y2="405.17499"
             x2="463.04599"
             y1="133.62801"
             x1="191.505"
             id="line4966" />
          <line
             y2="383.70001"
             x2="485.24799"
             y1="111.635"
             x1="213.188"
             id="line4968" />
          <line
             y2="362.229"
             x2="507.452"
             y1="89.641998"
             x1="234.871"
             id="line4970" />
          <line
             y2="340.755"
             x2="529.65503"
             y1="67.649002"
             x1="256.55301"
             id="line4972" />
          <line
             y2="319.28299"
             x2="551.85797"
             y1="45.657001"
             x1="278.23599"
             id="line4974" />
          <line
             y2="297.80899"
             x2="574.06201"
             y1="23.664"
             x1="299.92001"
             id="line4976" />
        </g>
      </g>
      <path
         d="m 490.7099,106.07949 c -23.593,-23.593003 -52.599,-44.853003 -87.247,-57.737003 -35.914,-13.355 -76.54,-24.612 -124.455,-20.529 -76.326,6.506 -129.916,40.751 -170.645,80.832003 -28.528003,28.073 -49.987003,62.474 -64.152003,102.643 -20.798,58.981 -19.536,128.598 3.849,188.607 19.947,51.187 52.595003,92.473 98.794003,124.455 43.431,30.067 105.765,53.386 175.776,47.473 85.272,-7.202 147.664,-50.95 188.607,-101.36 10.476,-12.896 20.892,-27.473 26.943,-44.906 5.929,-12.561 8.831,-21.1 11.548,-25.661 11.372,-25.482 17.397,-52.368 19.245,-82.114 5.685,-91.492 -29.517,-162.956 -78.263,-211.703 z m -25.131,278.748 c -0.163,0.348 -0.309,0.672 -0.479,1.031 -4.23,12.105 -11.517,22.227 -18.841,31.183 -28.634,35.004 -72.263,65.382 -131.895,70.384 -48.961,4.104 -92.552,-12.087 -122.923,-32.965 -26.392,-18.143 -46.454,-40.601 -60.522,-67.591 -0.858,-1.624 -9.028,-20.447 -9.052,-21.275 -11.145,-34.569 -12.112,-90.155 -0.673,-123.512 7.634,-22.263 20.357,-46.351 37.208,-65.435 23.266,-26.351 46.549,-43.236 83.398,-55.171 16.825,-5.45 31.887,-10.997 52.604,-11.547 50.52,-1.345 101.965,21.338 129.587,46.189 25.384,22.837 54.314,67.322 61.587,109.058 7.485,42.957 -0.503,84.898 -19.999,119.651 z"
         id="path4981" />
      <path
         stroke="#000000"
         stroke-width="6"
         fill="#ffffff"
         d="m 377.768,426.033 c -12.44,0 -23.357,-7.878 -27.167,-19.604 L 336.745,364.211 H 267.43 l -12.874,41.833 C 250.67,417.998 239.67,426 227.166,426 c -3.002,0 -5.984,-0.475 -8.863,-1.409 -14.946,-4.487 -23.431,-20.574 -18.852,-35.84 l 58.506,-185.323 c 3.799,-11.789 14.983,-20.012 27.2,-20.012 h 31.11 c 12.286,0 23.469,8.083 27.194,19.657 l 61.529,185.254 c 4.92,15.146 -3.227,31.405 -18.151,36.263 -2.951,0.958 -6.002,1.443 -9.071,1.443 z"
         id="path4983" />
      <g
         id="OAUTH"
         fill="#ffffff">
        <g
           id="g4995">
          <path
             d="m 148.001,124.354 -0.073,-0.099 c -7.296,-9.999 -5.155,-23.987 5.59,-31.829 10.745,-7.841 24.548,-5.64 31.844,4.358 l 0.073,0.099 c 7.296,9.999 5.155,23.988 -5.59,31.829 -10.745,7.841 -24.548,5.641 -31.844,-4.358 z m 27.657,-20.183 -0.073,-0.099 c -3.666,-5.024 -10.492,-6.752 -15.814,-2.868 -5.273,3.848 -5.683,10.703 -2.017,15.728 l 0.073,0.099 c 3.667,5.024 10.492,6.752 15.765,2.904 5.323,-3.884 5.733,-10.739 2.066,-15.764 z"
             id="path4985" />
          <path
             d="m 218.344,58.817 10.965,-3.518 30.739,35.734 -12.197,3.913 -5.342,-6.37 -15.833,5.08 -0.58,8.271 -11.962,3.838 z m 18.04,21.958 -8.318,-10.202 -0.889,13.156 z"
             id="path4987" />
          <path
             d="m 279.795,69.567 0.096,-24.203 12.132,0.048 -0.095,23.957 c -0.025,6.22 3.104,9.188 7.908,9.208 4.804,0.019 7.956,-2.801 7.979,-8.836 l 0.097,-24.264 12.132,0.048 -0.095,23.895 c -0.055,13.918 -8.023,19.984 -20.279,19.935 -12.255,-0.05 -19.928,-6.301 -19.875,-19.788 z"
             id="path4989" />
          <path
             d="m 363.859,65.338 -12.368,-3.775 3.056,-10.013 36.163,11.037 -3.056,10.013 -12.368,-3.774 -9.527,31.216 -11.426,-3.487 z"
             id="path4991" />
          <path
             d="m 423.012,76.559 9.946,6.619 -8.938,13.432 12.766,8.496 8.939,-13.433 9.946,6.619 -23.883,35.889 -9.947,-6.619 9.076,-13.638 -12.767,-8.496 -9.075,13.638 -9.946,-6.619 z"
             id="path4993" />
        </g>
        <g
           id="g5007">
          <path
             d="m 458.146,468.883 0.076,0.097 c 7.674,9.713 6.068,23.775 -4.37,32.021 -10.438,8.246 -24.316,6.574 -31.99,-3.139 l -0.076,-0.097 c -7.674,-9.714 -6.067,-23.775 4.37,-32.021 10.438,-8.245 24.316,-6.574 31.99,3.139 z m -26.869,21.227 0.076,0.097 c 3.856,4.881 10.743,6.347 15.914,2.262 5.122,-4.047 5.271,-10.913 1.414,-15.794 l -0.076,-0.097 c -3.855,-4.881 -10.743,-6.347 -15.865,-2.3 -5.171,4.085 -5.319,10.951 -1.463,15.832 z"
             id="path4997" />
          <path
             d="m 390.707,537.182 -10.8,3.997 -32.282,-34.346 12.013,-4.447 5.618,6.13 15.594,-5.772 0.215,-8.288 11.782,-4.361 z m -18.989,-21.142 8.759,9.825 0.309,-13.182 z"
             id="path4999" />
          <path
             d="m 328.888,528.985 1.067,24.179 -12.12,0.535 -1.057,-23.933 c -0.274,-6.214 -3.542,-9.028 -8.341,-8.816 -4.799,0.212 -7.812,3.181 -7.546,9.21 l 1.07,24.24 -12.12,0.535 -1.054,-23.871 c -0.614,-13.904 7.054,-20.346 19.297,-20.886 12.244,-0.541 20.209,5.333 20.804,18.807 z"
             id="path5001" />
          <path
             d="m 244.671,536.891 12.487,3.371 -2.729,10.108 -36.511,-9.855 2.729,-10.109 12.487,3.371 8.507,-31.516 11.536,3.114 z"
             id="path5003" />
          <path
             d="m 185.65,528.108 -10.249,-6.142 8.295,-13.841 -13.153,-7.884 -8.295,13.841 -10.248,-6.142 22.164,-36.979 10.248,6.143 -8.422,14.052 13.154,7.884 8.422,-14.052 10.248,6.143 z"
             id="path5005" />
        </g>
      </g>
    </g>
  </g>
  <g
     inkscape:groupmode="layer"
     id="layer3"
     inkscape:label="kani-claw-right-overlay"
     style="display:inline"
     transform="translate(-40.228511,-7.4385631)">
    <path
       d="m 74.643953,26.251952 c 1.156883,-1.026462 1.383369,-2.311371 1.047116,-3.752599 l -2.436647,1.263643 z"
       style="display:inline;fill:#2a3455;fill-opacity:1;stroke:#000000;stroke-width:0.32966;stroke-linecap:butt;stroke-linejoin:round;stroke-miterlimit:4;stroke-dasharray:none;stroke-opacity:1"
       id="path523"
       inkscape:label="under-kani-claw" />
    <path
       id="path5732-74"
       d="m 71.753651,21.394807 c -0.719107,0.469439 -1.267535,1.208385 -1.51602,2.042676 -0.326817,1.104585 -0.08447,2.222568 0.632582,2.918124 -1.17999,3.220643 -3.314446,2.161056 -3.359552,2.118688 -0.362682,-0.282284 -1.70696,1.196822 0.175601,1.723889 2.940634,0.823316 4.211648,-1.804817 4.666738,-3.187938 0.808096,0.06183 1.654903,-0.257623 2.324887,-0.877051 1.011643,-0.938034 1.432188,-2.380843 1.04105,-3.571645 l -2.74009,1.385776 0.0019,-0.425981 z"
       style="display:inline;fill:#ff6600;fill-opacity:1;stroke:#000000;stroke-width:0.32966;stroke-linejoin:round;stroke-miterlimit:4;stroke-dasharray:none;stroke-opacity:1" />
    <path
       style="display:inline;opacity:1;fill:#ff6600;fill-opacity:1;stroke:#000000;stroke-width:0.32966;stroke-linejoin:round;stroke-miterlimit:4;stroke-dasharray:none;stroke-opacity:1"
       d="m 71.753651,21.394807 c -0.719107,0.46944 -1.267535,1.208385 -1.51602,2.042676 -0.326817,1.104585 -0.08447,2.222568 0.632582,2.918125 -1.17999,3.220639 -3.314446,2.161052 -3.359552,2.118684 -0.362682,-0.282284 -1.70696,1.196821 0.175604,1.723888 2.940631,0.823316 4.211645,-1.804816 4.666735,-3.187934 0.808099,0.06183 1.654907,-0.257623 2.324891,-0.877051 1.011642,-0.938034 1.432189,-2.380843 1.04105,-3.571645 l -2.740091,1.385776 0.0019,-0.425981 z"
       id="path5728" />
    <path
       id="path5732"
       d="m 71.753651,21.394807 c -0.719107,0.46944 -1.267535,1.208385 -1.51602,2.042676 -0.326817,1.104585 -0.08447,2.222568 0.632582,2.918125 -1.17999,3.220639 -3.314446,2.161052 -3.359552,2.118684 -0.362682,-0.282284 -1.70696,1.196821 0.175604,1.723888 2.940631,0.823316 4.211645,-1.804816 4.666735,-3.187934 0.808099,0.06183 1.654907,-0.257623 2.324891,-0.877051 1.011642,-0.938034 1.432189,-2.380843 1.04105,-3.571645 l -2.740091,1.385776 0.0019,-0.425981 z"
       style="display:inline;opacity:1;fill:#ff6600;fill-opacity:1;stroke:#000000;stroke-width:0.32966;stroke-linejoin:round;stroke-miterlimit:4;stroke-dasharray:none;stroke-opacity:1" />
  </g>
  <g
     id="g7998"
     inkscape:label="party-hat"
     transform="matrix(1.0107117,0,0,0.94642879,-34.697969,-6.0098395)"
     style="display:none">
    <path
       style="display:inline;fill:#1da1f2;fill-opacity:1;stroke:none;stroke-width:1.4;stroke-linecap:round;stroke-linejoin:round;stroke-dasharray:none;stroke-opacity:1"
       d="M 84.970159,82.659204 98.594291,41.592222 113.931,82.386454 c 0,0 -8.7088,2.847069 -15.025249,2.754354 -6.316442,-0.09272 -13.935592,-2.481604 -13.935592,-2.481604 z"
       id="path7024"
       inkscape:label="party-hat-background"
       sodipodi:nodetypes="cccsc" />
    <path
       style="display:inline;fill:#ffd60f;fill-opacity:1;stroke:#ff00ff;stroke-width:0;stroke-linecap:round;stroke-linejoin:miter;stroke-dasharray:none;stroke-opacity:1"
       d="m 90.866459,64.772976 -1.399384,3.650367 c 0,0 6.297977,-0.0079 9.604616,-2.229612 3.306639,-2.221751 6.641769,-4.763148 6.637539,-5.892882 -0.004,-1.129737 -1.2244,-3.398221 -1.2244,-3.398221 0,0 -1.76379,2.983434 -5.089689,4.759036 -3.325897,1.775606 -6.256176,3.317156 -8.528682,3.111312 z"
       id="path7711"
       inkscape:label="yellow-middle" />
    <path
       style="fill:#ffd60f;fill-opacity:1;stroke:#ff00ff;stroke-width:0;stroke-linecap:round;stroke-linejoin:miter;stroke-dasharray:none;stroke-opacity:1"
       d="m 95.283815,50.496253 c 0,0 2.017636,-0.742584 2.746046,-1.209859 0.68409,-0.438843 2.540819,-1.493505 2.505569,-1.916931 -0.0353,-0.423423 0.90713,1.638551 0.90713,1.638551 0,0 -0.43327,0.543192 -1.447199,1.610006 -1.01394,1.066813 -1.72817,1.358505 -2.26456,1.622681 -0.53638,0.264174 -2.0866,0.861497 -2.636383,0.793816 -0.549783,-0.06768 0.189397,-2.538264 0.189397,-2.538264 z"
       id="path7713"
       sodipodi:nodetypes="csccsssc"
       inkscape:label="yellow-top" />
    <path
       style="display:inline;fill:#ffd60f;fill-opacity:1;stroke:#ff00ff;stroke-width:0;stroke-linecap:round;stroke-linejoin:miter;stroke-dasharray:none;stroke-opacity:1"
       d="m 109.92717,71.488689 c 0,0 -2.20481,3.007619 -3.4367,4.221512 -1.06044,1.044951 -3.3987,2.32693 -5.45873,3.108264 -2.060039,0.78133 -7.390321,2.031263 -10.319319,2.035505 -2.53475,0.0037 -3.102127,-0.17882 -4.727213,-0.614261 -1.010264,-0.270699 -0.801047,2.045289 -0.801047,2.045289 l 4.858605,2.209687 10.217314,-0.32013 c 0,0 3.08806,-0.85865 3.26326,-0.9226 0.17519,-0.06395 5.61136,-3.775927 5.91906,-4.176562 0.30769,-0.400637 1.97931,-2.854544 1.85876,-3.106917 -0.12055,-0.25237 -1.37399,-4.479787 -1.37399,-4.479787 z"
       id="path7715"
       sodipodi:nodetypes="csssscccsssc"
       inkscape:label="yellow-bottom" />
    <path
       style="display:inline;fill:#ffffff;fill-opacity:1;stroke:#ff00ff;stroke-width:0;stroke-linecap:round;stroke-linejoin:miter;stroke-dasharray:none;stroke-opacity:1"
       d="m 88.208385,72.747325 c 0,0 6.251797,0.04012 9.907566,-1.876691 3.875559,-2.032049 5.147419,-2.116642 8.954089,-7.814465 -0.0353,-0.423423 1.59724,3.704345 1.59724,3.704345 0,0 -2.99139,5.115034 -6.19574,6.653752 -4.079519,1.958969 -6.324966,2.675602 -8.934752,3.106262 -1.713747,0.282798 -4.8213,0.352969 -6.27215,-0.01279 -0.537127,-0.135411 0.943747,-3.760409 0.943747,-3.760409 z"
       id="path7982"
       sodipodi:nodetypes="csccssscc"
       inkscape:label="white-middle" />
    <path
       style="fill:#ffffff;fill-opacity:1;stroke:#ff00ff;stroke-width:0;stroke-linecap:round;stroke-linejoin:miter;stroke-dasharray:none;stroke-opacity:1"
       d="m 92.993027,57.289539 c 0,0 3.629855,-0.719631 5.482954,-2.090937 0.65332,-0.483462 3.662839,-3.285322 4.163269,-4.079419 -0.0353,-0.423423 0.98376,2.839616 0.98376,2.839616 0,0 -1.55545,1.919882 -2.68768,2.888013 -1.118619,0.956483 -3.276219,2.193755 -4.815637,2.748644 -1.634013,0.588985 -3.388075,0.798009 -3.937858,0.730328 -0.549783,-0.06768 0.811192,-3.036245 0.811192,-3.036245 z"
       id="path7979"
       sodipodi:nodetypes="csccsssc"
       inkscape:label="white-top" />
    <path
       style="display:inline;fill:none;fill-opacity:1;stroke:#ff00ff;stroke-width:1.4;stroke-linecap:round;stroke-linejoin:round;stroke-dasharray:none;stroke-opacity:1"
       d="M 84.970159,82.659204 98.594291,41.592222 113.931,82.386454 c 0,0 -8.7088,2.847069 -15.025249,2.754354 -6.316442,-0.09272 -13.935592,-2.481604 -13.935592,-2.481604 z"
       id="path508"
       inkscape:label="party-hat-outline"
       sodipodi:nodetypes="cccsc" />
    <path
       style="display:inline;fill:#000000;fill-opacity:1;stroke:#8f57a8;stroke-width:2.4;stroke-linecap:round;stroke-linejoin:round;stroke-dasharray:none;stroke-opacity:1"
       d="m 95.307706,40.797374 8.863844,3.5236 c -4.511069,-1.476791 -5.455019,1.171445 -8.289058,2.243988 0,0 5.051628,-7.95802 4.765018,-7.734177 -1.618949,1.264417 -2.259979,9.16058 -2.259979,9.16058 l -0.26088,-9.396127 3.698779,7.921822 -7.078677,-2.809491 8.818747,-2.23602 z"
       id="path3171-3"
       sodipodi:nodetypes="cccscccccc"
       inkscape:label="pompom" />
    <path
       style="display:inline;fill:#0056ed;fill-opacity:1;stroke:#ae00ff;stroke-width:2.4;stroke-linecap:round;stroke-linejoin:round;stroke-dasharray:none;stroke-opacity:1"
       d="m 96.516104,39.086314 5.923406,7.476417 c -3.172509,-3.530708 -5.311942,-1.706696 -8.303144,-2.191314 0,0 8.348654,-4.375959 7.988584,-4.324981 -2.03392,0.28796 -6.529397,6.811072 -6.529397,6.811072 l 4.462297,-8.273038 -0.747319,8.710783 -4.732664,-5.966807 8.758203,2.462516 z"
       id="path3171"
       sodipodi:nodetypes="cccscccccc"
       inkscape:label="pompom" />
    <path
       style="fill:#744eaa;fill-opacity:1;stroke:#8f57a8;stroke-width:0.1;stroke-linecap:round;stroke-linejoin:round;stroke-dasharray:none;stroke-opacity:1"
       d="m 85.749242,80.805507 -1.299196,-0.793626 -0.72012,1.516668 -1.19957,0.02641 1.07959,1.592728 -0.479079,1.665647 1.727851,-0.04555 0.945116,1.102037 1.595689,-0.420439 1.013886,1.119783 1.616715,-0.611034 0.955484,0.869926 1.417278,-0.82042 1.399024,0.893951 1.62274,-0.936247 1.191522,0.880515 1.692439,-0.626057 1.62431,0.594614 1.273839,-0.730245 1.14228,0.675465 0.83977,-0.542118 1.7433,0.433922 1.37853,-0.883036 1.46376,0.789948 0.98369,-0.723702 1.56885,0.265388 0.83917,-1.064009 1.5817,0.538036 1.04635,-1.072595 1.45989,-0.386437 -0.0243,-1.46382 0.73064,-1.311775 -1.08662,-0.620199 -0.54503,-1.441178 -1.29888,0.821314 -1.72095,-0.803735 -0.89109,1.605976 -1.44802,-0.173747 -0.40144,0.954405 -1.25934,-0.74345 -1.14276,1.025692 -2.05145,-0.719347 c 0,0 -1.1538,1.054828 -1.21655,1.018337 -0.0627,-0.03649 -0.72908,-0.632037 -0.72908,-0.632037 l -2.781839,0.990357 -1.01136,-0.982973 -0.76464,0.897745 -1.265471,-0.508519 -1.392952,0.640072 -1.261957,-0.842494 -1.207529,1.021591 -2.137111,-1.168069 -0.83207,0.565255 -0.716719,-0.940683 -1.262123,0.222665 -0.854411,-1.073467 z"
       id="path3419"
       inkscape:label="purple-frizzy-bit" />
  </g>
  <g
     id="g571"
     transform="matrix(-0.37792196,-0.19227008,-0.19227008,0.37792196,160.95541,83.78303)"
     inkscape:export-filename="../fe6a9b8b/kani-stabby.png"
     inkscape:export-xdpi="370.63721"
     inkscape:export-ydpi="370.63721"
     style="display:none"
     inkscape:label="knife-left">
    <path
       d="M 327.32922,104.16963 313.23927,90.079688 246.31471,157.00414 c 0,0 -6.09712,4.9021 -4.45506,8.97393 1.6429,4.07209 4.34482,5.77218 11.55969,6.84567 6.14218,0.99798 6.56385,-1.72199 9.06459,-9.07879 2.49908,-7.35679 3.92356,-2.6465 12.85268,-11.57524 8.93008,-8.9275 21.21345,-19.64556 26.56932,-29.0037 5.35834,-9.35496 4.43089,-10.42811 12.07206,-10.21327 4.21357,0.0716 4.88879,-0.46249 6.31789,-1.74872 1.42875,-1.28481 7.03334,-7.03439 7.03334,-7.03439"
       style="fill:#c52a34;fill-opacity:1;fill-rule:nonzero;stroke:none;stroke-width:0.0352778"
       id="path561" />
    <path
       d="M 333.98084,110.82126 313.52961,90.369671 c 0,0 66.27001,-67.178418 73.76936,-74.221626 7.49688,-7.0446203 13.081,-13.0810013 23.41845,-16.14946258 -0.68086,6.58883098 -6.21418,20.98428158 -13.48493,31.66357158 -7.2711,10.681759 -36.32483,51.549656 -63.25165,79.159106"
       style="fill:#b9b8b7;fill-opacity:1;fill-rule:nonzero;stroke:none;stroke-width:0.0352778"
       id="path563" />
    <path
       d="m 404.21431,2.595027 c -6.52039,3.3330447 -11.1573,8.142464 -16.91534,13.553018 -7.49935,7.043208 -73.76936,74.221626 -73.76936,74.221626 l 15.67956,15.678859 c 26.92717,-27.608745 55.97949,-68.476642 63.25094,-79.158049 5.17807,-7.605536 9.46362,-17.0825591 11.7542,-24.295454"
       style="fill:#999a99;fill-opacity:1;fill-rule:nonzero;stroke:none;stroke-width:0.0352778"
       id="path565" />
    <path
       d="m 255.68936,173.17156 c -0.61955,0 -1.31989,-0.0656 -2.11762,-0.19541 -4.67209,-0.69397 -7.69193,-1.90252 -9.11972,-3.20187 l 0.0139,-0.014 c 1.82658,1.5197 4.5489,2.40839 8.9534,3.06351 0.81082,0.13188 1.52216,0.19899 2.15166,0.19899 4.13826,0 4.74239,-2.8925 6.91293,-9.27778 2.49908,-7.35679 3.92356,-2.6465 12.85268,-11.57524 8.93008,-8.9275 21.21345,-19.64556 26.56932,-29.0037 4.98299,-8.6995 4.53108,-10.23726 10.58792,-10.23726 0.4565,0 0.94862,0.009 1.48414,0.024 0.24729,0.004 0.48295,0.006 0.70661,0.006 3.58916,0 4.26614,-0.54433 5.61128,-1.75507 1.42875,-1.28481 7.03334,-7.03439 7.03334,-7.03439 v 0 c 0,0 -5.6,5.75451 -7.02875,7.03933 -1.34549,1.21109 -2.01824,1.7593 -5.61058,1.7593 -0.2226,0 -0.45649,-0.002 -0.70238,-0.006 -0.53269,-0.0152 -1.0227,-0.0236 -1.47708,-0.0236 -6.06319,0 -5.60035,1.54375 -10.5851,10.24714 -5.35693,9.35778 -17.62054,20.09429 -26.55122,29.02274 -8.92845,8.92803 -10.31434,4.2562 -12.81342,11.61408 -2.17593,6.40046 -2.71998,9.34932 -6.87133,9.34932 m 71.63986,-69.00193 -8.63636,-8.63635 v 0 l 8.63636,8.63635"
       style="fill:#cdccca;fill-opacity:1;fill-rule:nonzero;stroke:none;stroke-width:0.0352778"
       id="path567" />
    <path
       d="m 255.571,173.02273 c -0.6295,0 -1.34084,-0.0671 -2.15166,-0.19899 -4.4045,-0.65512 -7.12682,-1.54381 -8.9534,-3.06351 l 74.22692,-74.22695 8.63636,8.63635 c 0,0 -5.60459,5.74958 -7.03334,7.03439 -1.34514,1.21074 -2.02212,1.75507 -5.61128,1.75507 -0.22366,0 -0.45932,-0.002 -0.70661,-0.006 -0.53552,-0.0152 -1.02764,-0.024 -1.48414,-0.024 -6.05684,0 -5.60493,1.53776 -10.58792,10.23726 -5.35587,9.35814 -17.63924,20.0762 -26.56932,29.0037 -8.92912,8.92874 -10.3536,4.21845 -12.85268,11.57524 -2.17054,6.38528 -2.77467,9.27778 -6.91293,9.27778"
       style="fill:#9b232b;fill-opacity:1;fill-rule:nonzero;stroke:none;stroke-width:0.0352778"
       id="path569" />
  </g>
</svg>
