<?xml version="1.0" encoding="UTF-8" standalone="no"?>
<svg
   id="svg5800"
   version="1.1"
   viewBox="0 0 8.4666659 8.4666662"
   height="32"
   width="32"
   sodipodi:docname="logo-square.svg"
   inkscape:version="1.2 (dc2aeda, 2022-05-15)"
   inkscape:export-xdpi="96.000008"
   inkscape:export-ydpi="96.000008"
   xmlns:inkscape="http://www.inkscape.org/namespaces/inkscape"
   xmlns:sodipodi="http://sodipodi.sourceforge.net/DTD/sodipodi-0.dtd"
   xmlns="http://www.w3.org/2000/svg"
   xmlns:svg="http://www.w3.org/2000/svg"
   xmlns:rdf="http://www.w3.org/1999/02/22-rdf-syntax-ns#"
   xmlns:cc="http://creativecommons.org/ns#"
   xmlns:dc="http://purl.org/dc/elements/1.1/">
  <sodipodi:namedview
     pagecolor="#ffffff"
     bordercolor="#666666"
     borderopacity="1"
     objecttolerance="10"
     gridtolerance="10"
     guidetolerance="10"
     inkscape:pageopacity="0"
     inkscape:pageshadow="2"
     inkscape:window-width="1636"
     inkscape:window-height="1273"
     id="namedview108"
     showgrid="false"
     inkscape:zoom="16"
     inkscape:cx="25.5625"
     inkscape:cy="21.09375"
     inkscape:window-x="2213"
     inkscape:window-y="259"
     inkscape:window-maximized="0"
     inkscape:current-layer="layer1"
     inkscape:pagecheckerboard="true"
     inkscape:document-units="px"
     units="px"
     showguides="true"
     inkscape:guide-bbox="true"
     inkscape:showpageshadow="2"
     inkscape:deskcolor="#d1d1d1">
    <sodipodi:guide
       position="0.26458331,8.4666661"
       orientation="-1,0"
       id="guide3487"
       inkscape:label="LeftGutter"
       inkscape:locked="false"
       inkscape:color="rgb(0,0,255)" />
    <sodipodi:guide
       position="8.2020827,8.4666661"
       orientation="-1,0"
       id="guide3559"
       inkscape:label="RightGutter"
       inkscape:locked="false"
       inkscape:color="rgb(0,0,255)" />
  </sodipodi:namedview>
  <defs
     id="defs5794" />
  <metadata
     id="metadata5797">
    <rdf:RDF>
      <cc:Work
         rdf:about="">
        <dc:format>image/svg+xml</dc:format>
        <dc:type
           rdf:resource="http://purl.org/dc/dcmitype/StillImage" />
      </cc:Work>
    </rdf:RDF>
  </metadata>
  <g
     inkscape:groupmode="layer"
     id="layer3"
     inkscape:label="kani">
    <path
       style="fill:#803300;stroke:#000000;stroke-width:0.0738318;stroke-linecap:butt;stroke-linejoin:round;stroke-miterlimit:4;stroke-dasharray:none;stroke-opacity:1"
       d="M 6.8236027,5.6214477 C 7.0727468,6.219438 6.3950073,6.7706755 6.3921002,6.7795817 6.5158926,6.4189258 6.6467266,6.1277845 6.4061022,5.8757083"
       id="path5408" />
    <path
       id="path5404"
       d="M 1.2663952,5.6607791 C 1.017251,6.2587694 1.6949906,6.810007 1.6978977,6.8189139 1.5741055,6.4582572 1.4432714,6.167116 1.6838958,5.9150398"
       style="fill:#803300;stroke:#000000;stroke-width:0.0738318;stroke-linecap:butt;stroke-linejoin:round;stroke-miterlimit:4;stroke-dasharray:none;stroke-opacity:1" />
    <path
       id="path4529"
       d="M 4.1262147,2.4952519 C 4.0292655,2.4941071 3.9364931,2.6683689 3.7638923,3.0093297 3.2414578,2.4386605 3.2147347,2.4317515 3.0347307,3.2043142 c -0.00842,0.0035 -0.016823,0.00705 -0.025229,0.010643 C 2.3514594,2.8231912 2.3174598,2.8201269 2.367398,3.5859179 2.3514185,3.5976914 2.335452,3.6096168 2.3195424,3.6217364 1.6452247,3.356438 1.6160687,3.3731547 1.7867025,4.1082086 1.7787132,4.1167961 1.770701,4.1253409 1.7627361,4.134027 1.0754648,3.949608 1.0562353,3.977319 1.3125518,4.6975356 1.3015525,4.7132045 1.290639,4.7291433 1.2797042,4.745027 0.50506248,4.6627831 0.48914912,4.6778095 0.88296405,5.3946204 c -0.001926,0.00354 -0.003896,0.00693 -0.005823,0.01049 C 0.55977688,5.5557937 0.45471315,5.7394485 0.30433189,5.9859621 0.29265912,6.4748694 0.81954545,6.8962235 1.5771307,7.3750747 1.3168531,6.8959735 0.90982489,6.6531028 0.83173607,6.0588526 0.94609816,5.8450749 1.1405778,5.7712278 1.3075711,5.6750433 3.1315289,6.7322513 5.0574175,6.7445068 6.9788084,5.6345485 7.1462505,5.7313085 7.3418856,5.8048928 7.4567107,6.0195366 7.3786219,6.6137861 6.9715555,6.8566192 6.7112779,7.3357204 7.4688628,6.8568694 7.9957876,6.4355526 7.9841149,5.9466454 7.837906,5.7069711 7.7339485,5.526798 7.4366502,5.3784984 7.8080292,4.7002197 7.7726761,4.693836 6.9932037,4.7768143 6.9866028,4.768338 6.9800203,4.759754 6.9734105,4.7513387 7.2426835,3.9962954 7.2257907,3.9765642 6.4998724,4.1721643 6.683597,3.3844248 6.6590462,3.3812124 5.9235414,3.6715469 5.9789426,2.8411956 5.9590968,2.8429202 5.265052,3.2563684 5.0799777,2.4603237 5.058139,2.4626925 4.5286165,3.0411552 4.3294434,2.6781384 4.2246516,2.4964146 4.126211,2.4952519 Z"
       style="fill:#ff6600;stroke:#000000;stroke-width:0.0738318;stroke-linecap:butt;stroke-linejoin:round;stroke-miterlimit:4;stroke-dasharray:none;stroke-opacity:1" />
    <path
       id="path5389"
       d="m 2.2144388,5.4099987 c -0.037814,2.942e-4 -0.063022,0.004 -0.058881,0.00655 0,0 -0.6766928,0.8782586 0.022971,1.3729146 A 0.72030748,0.61055214 36.636339 0 0 2.2849976,7.4828565 0.72030748,0.61055214 36.636339 0 0 3.0676808,7.7747629 L 2.803634,7.1415518 3.4849785,7.1956595 A 0.72030748,0.61055214 36.636339 0 0 2.9644271,6.54002 0.72030748,0.61055214 36.636339 0 0 2.4452544,6.5406823 C 2.307286,6.4403184 2.1023393,6.1782303 2.4422318,5.6227566 2.5546974,5.4389575 2.3278831,5.4091436 2.2144404,5.4100156 Z"
       style="fill:#ff6600;fill-opacity:1;stroke:#000000;stroke-width:0.0738318;stroke-linejoin:round;stroke-miterlimit:4;stroke-dasharray:none;stroke-opacity:1" />
    <g
       id="g5758"
       transform="matrix(0.07408455,0,0,0.07357997,-3.6046589,-3.0058747)">
      <path
         style="fill:#d45500;stroke:#000000;stroke-width:1;stroke-linecap:butt;stroke-linejoin:miter;stroke-miterlimit:4;stroke-dasharray:none;stroke-opacity:1"
         d="m 98.808992,121.55238 c -0.682767,-0.0559 4.468828,10.17565 8.051908,0.17277 0.24133,-0.67372 -3.69223,2.90976 -8.051908,-0.17277 z"
         id="path5399" />
      <path
         style="fill:#000000;stroke:#000000;stroke-width:0.264583px;stroke-linecap:butt;stroke-linejoin:miter;stroke-opacity:1"
         d="m 93.212672,111.5632 c -5.131386,10.99206 5.618332,14.73472 4.412511,4.11951 -0.319289,-3.2881 -2.328089,-7.17448 -4.412511,-4.11951 z"
         id="path5415" />
      <path
         style="fill:#ffffff;stroke:#000000;stroke-width:0.264583px;stroke-linecap:butt;stroke-linejoin:miter;stroke-opacity:1"
         d="m 95.394393,112.41429 c -1.183441,1.51896 -0.08172,3.83605 -0.09872,3.98526 1.674403,1.64132 1.61267,-4.77034 0.09872,-3.98526 z"
         id="path5417" />
      <path
         id="path5433"
         d="m 109.6169,111.5632 c -5.13141,10.99206 5.61836,14.73472 4.41254,4.11951 -0.31929,-3.2881 -2.3281,-7.17448 -4.41254,-4.11951 z"
         style="fill:#000000;stroke:#000000;stroke-width:0.264583px;stroke-linecap:butt;stroke-linejoin:miter;stroke-opacity:1" />
      <path
         id="path5435"
         d="m 111.79864,112.41429 c -1.18345,1.51896 -0.0817,3.83605 -0.0987,3.98526 1.67441,1.64132 1.61267,-4.77034 0.0987,-3.98526 z"
         style="fill:#ffffff;stroke:#000000;stroke-width:0.264583px;stroke-linecap:butt;stroke-linejoin:miter;stroke-opacity:1" />
    </g>
  </g>
  <g
     inkscape:groupmode="layer"
     id="layer1"
     inkscape:label="passport"
     style="display:inline">
    <path
       id="path5734"
       d="M 4.4727876,3.2860988 5.0865919,1.0623464 8.2231056,1.9163406 7.6093007,4.1400935 6.6899943,3.8897392 C 6.7076906,3.5449842 6.537409,3.3079137 6.2534312,3.1359748 L 6.0721688,3.7215707 Z"
       style="fill:#2a3455;fill-opacity:1;stroke:#000000;stroke-width:0.0738318;stroke-linecap:butt;stroke-linejoin:round;stroke-miterlimit:4;stroke-dasharray:none;stroke-opacity:1" />
    <text
       xml:space="preserve"
       style="font-style:normal;font-weight:normal;font-size:0.166237px;line-height:1.25;font-family:sans-serif;fill:#000000;fill-opacity:1;stroke:none;stroke-width:0.00415594"
       x="-1.3283145"
       y="7.929297"
       id="text163"
       transform="rotate(-74.037466)"
       inkscape:transform-center-x="-0.016559599"
       inkscape:transform-center-y="0.078066045"><tspan
         sodipodi:role="line"
         id="tspan161"
         x="-1.3283145"
         y="7.929297"
         style="font-style:normal;font-variant:normal;font-weight:normal;font-stretch:normal;font-family:'.PingFang SC';-inkscape-font-specification:'.PingFang SC';fill:#cccccc;stroke-width:0.00415594">AUTHSTRALIA</tspan></text>
    <text
       xml:space="preserve"
       style="font-style:normal;font-weight:normal;font-size:0.140154px;line-height:1.25;font-family:sans-serif;fill:#000000;fill-opacity:1;stroke:none;stroke-width:0.00350384"
       x="-1.1218139"
       y="8.1409359"
       id="text167"
       transform="rotate(-73.988078)"
       inkscape:transform-center-x="-0.056139824"
       inkscape:transform-center-y="-0.035726887"><tspan
         sodipodi:role="line"
         id="tspan165"
         x="-1.1218139"
         y="8.1409359"
         style="fill:#cccccc;stroke-width:0.00350384">PASSPORT</tspan></text>
    <g
       id="g1027"
       transform="matrix(0.04379293,-0.05557881,0.05557881,0.04379293,-5.8120093,6.0560959)">
      <path
         id="path4529-1"
         d="m 142.60294,99.070411 c -0.25799,0.104739 -0.3086,0.672471 -0.384,1.773409 -2.02218,-0.940695 -2.10067,-0.929408 -1.71256,1.33048 -0.0183,0.0187 -0.0366,0.0375 -0.0549,0.0564 -2.18101,-0.31296 -2.27447,-0.28333 -1.28505,1.70286 -0.0291,0.0491 -0.0581,0.0987 -0.0866,0.1487 -2.08254,0.0423 -2.14104,0.11931 -0.86643,1.88938 -0.0116,0.0318 -0.0232,0.0635 -0.0346,0.0955 -2.02632,0.27237 -2.04621,0.36762 -0.56133,2.00288 -0.0116,0.054 -0.0226,0.10863 -0.0338,0.16313 -2.1433,0.64191 -2.16862,0.69967 -0.32345,2.17298 -0.001,0.0115 -0.002,0.0228 -0.004,0.0345 -0.67172,0.75455 -0.74436,1.361 -0.86664,2.18542 0.51637,1.31647 2.38318,1.85412 4.92525,2.2886 -1.22549,-0.98801 -2.57514,-1.18304 -3.44709,-2.68058 0.0635,-0.6971 0.49586,-1.1102 0.83039,-1.55228 6.0132,0.79095 11.12666,-1.31742 14.97206,-6.41277 0.55169,0.0718 1.1521,0.0505 1.69641,0.49515 0.45839,1.67116 -0.34771,2.77114 -0.50064,4.33785 1.47008,-2.11891 2.39377,-3.82799 1.81562,-5.11852 -0.65544,-0.47646 -1.13239,-0.84126 -2.08564,-0.90614 0.2242,-2.22125 0.12343,-2.19897 -1.84772,-1.11119 -0.027,-0.0153 -0.054,-0.0308 -0.081,-0.0459 -0.13212,-2.312418 -0.19894,-2.346242 -1.90222,-1.01773 -0.39525,-2.304482 -0.46385,-2.285755 -2.08647,-0.69401 -0.78276,-2.275429 -0.83337,-2.248771 -2.2084,-0.374874 -1.38113,-1.916624 -1.4363,-1.886031 -2.19098,0.244914 -0.93375,-0.746434 -1.41465,-1.114437 -1.67661,-1.008099 z"
         style="fill:#2a3455;fill-opacity:1;stroke:#cccccc;stroke-width:0.212762;stroke-linecap:butt;stroke-linejoin:round;stroke-miterlimit:4;stroke-dasharray:none;stroke-opacity:1" />
      <path
         id="path5389-8"
         d="m 140.97831,108.89338 c -0.0997,0.0432 -0.1624,0.0807 -0.1486,0.0829 0,0 -0.80881,3.09385 1.59758,3.63486 a 2.0738233,1.7610569 15.019669 0 0 1.05807,1.73034 2.0738233,1.7610569 15.019669 0 0 2.39928,-0.0919 l -1.40796,-1.39467 1.86476,-0.61321 a 2.0738233,1.7610569 15.019669 0 0 -2.1123,-1.16933 2.0738233,1.7610569 15.019669 0 0 -1.37407,0.57883 c -0.47768,-0.11421 -1.31374,-0.58513 -1.03548,-2.44396 0.0921,-0.61507 -0.54189,-0.4424 -0.84131,-0.31396 z"
         style="fill:#2a3455;fill-opacity:1;stroke:#cccccc;stroke-width:0.212762;stroke-linejoin:round;stroke-miterlimit:4;stroke-dasharray:none;stroke-opacity:1" />
      <path
         id="path5732-7"
         d="m 151.16542,99.348723 c -0.31065,0.459014 -0.45239,1.035767 -0.39183,1.594317 0.0815,0.73897 0.505,1.34373 1.10549,1.57849 0.10244,2.21135 -1.43246,2.11407 -1.46989,2.10013 -0.28634,-0.0774 -0.71677,1.13867 0.53519,0.98198 1.95562,-0.24473 2.05537,-2.12623 1.98064,-3.063 0.49633,-0.1651 0.92044,-0.56676 1.16438,-1.10276 0.36766,-0.81095 0.25745,-1.774612 -0.27281,-2.385521 l -1.28437,1.509221 -0.10531,-0.25395 z"
         style="fill:#2a3455;fill-opacity:1;stroke:#cccccc;stroke-width:0.212762;stroke-linejoin:round;stroke-miterlimit:4;stroke-dasharray:none;stroke-opacity:1" />
    </g>
    <text
       xml:space="preserve"
       style="font-style:normal;font-weight:normal;font-size:0.220925px;line-height:1.25;font-family:sans-serif;fill:#cccccc;fill-opacity:1;stroke:none;stroke-width:0.00552317"
       x="-1.2271552"
       y="5.7904234"
       id="text1127"
       transform="rotate(-74.176232)"><tspan
         sodipodi:role="line"
         id="tspan1125"
         x="-1.2271552"
         y="5.7904234"
         style="fill:#cccccc;stroke-width:0.00552317">KANIDM</tspan></text>
    <path
       style="fill:none;fill-opacity:1;stroke:#000000;stroke-width:0.0738318;stroke-linecap:butt;stroke-linejoin:round;stroke-miterlimit:4;stroke-dasharray:none;stroke-opacity:1"
       d="M 4.4727876,3.2860988 5.0865919,1.0623464 8.2231056,1.9163406 7.6093007,4.1400935 Z"
       id="path5730" />
    <path
       id="path5732"
       d="M 5.4483222,3.5809313 C 5.4102971,3.768852 5.4423564,3.9717625 5.5369438,4.1418391 5.6625176,4.3666719 5.8798921,4.5029901 6.104328,4.497653 6.4346939,5.1893497 5.9286446,5.3633841 5.914749,5.3639364 5.8123739,5.377513 5.8377135,5.8229134 6.2187287,5.6056709 6.8138918,5.2663326 6.5928357,4.6528388 6.4428208,4.3640113 6.5800196,4.2450372 6.6622,4.0602516 6.6684455,3.856687 6.6774386,3.5488876 6.5124143,3.2562212 6.2599318,3.1321972 l -0.2094822,0.6530092 -0.06802,-0.066904 z"
       style="display:inline;fill:#ff6600;fill-opacity:1;stroke:#000000;stroke-width:0.0738318;stroke-linejoin:round;stroke-miterlimit:4;stroke-dasharray:none;stroke-opacity:1" />
  </g>
</svg>
